<svg xmlns="http://www.w3.org/2000/svg" xmlns:xlink="http://www.w3.org/1999/xlink" width="451" zoomAndPan="magnify" viewBox="0 0 338.25 92.999996" height="124" preserveAspectRatio="xMidYMid meet" version="1.0"><defs><g/></defs><path fill="#80c7a3" d="M 20.710938 50.648438 L 17.375 50.648438 L 17.375 46.894531 L 13.617188 46.894531 L 13.617188 43.558594 L 17.375 43.558594 L 17.375 39.808594 L 20.710938 39.808594 L 20.710938 43.558594 L 24.460938 43.558594 L 24.460938 46.894531 L 20.710938 46.894531 Z M 20.710938 50.648438 " fill-opacity="1" fill-rule="nonzero"/><path fill="#80c7a3" d="M 69.09375 59.097656 C 76.742188 59.097656 82.964844 52.875 82.964844 45.226562 C 82.964844 40.199219 80.273438 35.804688 76.265625 33.375 C 77.019531 32.382812 77.75 31.40625 78.453125 30.445312 C 83.34375 33.558594 86.613281 39.007812 86.613281 45.226562 C 86.613281 54.882812 78.757812 62.738281 69.101562 62.738281 L 49.113281 62.738281 C 50.410156 61.554688 51.707031 60.347656 53.015625 59.097656 Z M 69.09375 59.097656 " fill-opacity="1" fill-rule="nonzero"/><path fill="#1696de" d="M 3.25 86.742188 C 8.722656 92.21875 31.832031 77.992188 54.855469 54.964844 C 77.886719 31.933594 92.117188 8.828125 86.640625 3.351562 C 83.390625 0.101562 73.941406 3.789062 61.980469 12.132812 C 67.765625 8.867188 72.089844 7.757812 73.84375 9.511719 C 76.191406 11.859375 73.402344 18.8125 67.179688 27.714844 L 21.160156 27.714844 C 11.503906 27.714844 3.644531 35.570312 3.644531 45.226562 C 3.644531 54.882812 11.503906 62.738281 21.160156 62.738281 L 33.683594 62.738281 C 21.957031 72.054688 12.265625 76.800781 9.410156 73.941406 C 7.65625 72.1875 8.765625 67.863281 12.03125 62.078125 C 3.6875 74.039062 0 83.496094 3.25 86.742188 Z M 45.734375 33.78125 L 45.734375 52.179688 C 43.15625 54.648438 40.597656 56.957031 38.09375 59.097656 L 21.160156 59.097656 C 13.507812 59.097656 7.285156 52.875 7.285156 45.226562 C 7.285156 37.578125 13.507812 31.355469 21.160156 31.355469 L 64.523438 31.355469 C 63.917969 32.152344 63.292969 32.960938 62.640625 33.78125 Z M 45.734375 33.78125 " fill-opacity="1" fill-rule="nonzero"/><path fill="#80c7a3" d="M 69.09375 56.675781 L 55.511719 56.675781 C 56.027344 56.171875 56.546875 55.660156 57.0625 55.140625 C 63.820312 48.382812 69.808594 41.625 74.777344 35.304688 C 78.214844 37.285156 80.542969 40.988281 80.542969 45.230469 C 80.539062 51.542969 75.402344 56.675781 69.09375 56.675781 Z M 69.09375 56.675781 " fill-opacity="1" fill-rule="nonzero"/><g fill="#1696de" fill-opacity="1"><g transform="translate(241.555206, 54.946045)"><g><path d="M 0.84375 -21.53125 C 0.84375 -21.726562 0.90625 -21.890625 1.03125 -22.015625 C 1.164062 -22.148438 1.351562 -22.21875 1.59375 -22.21875 L 19.484375 -22.21875 C 19.722656 -22.21875 19.90625 -22.148438 20.03125 -22.015625 C 20.164062 -21.890625 20.234375 -21.726562 20.234375 -21.53125 L 20.234375 -17.96875 C 20.234375 -17.582031 20.015625 -17.390625 19.578125 -17.390625 L 14.28125 -17.390625 C 14.039062 -17.390625 13.921875 -17.289062 13.921875 -17.09375 L 13.921875 -0.65625 C 13.921875 -0.4375 13.867188 -0.269531 13.765625 -0.15625 C 13.671875 -0.0507812 13.535156 0 13.359375 0 L 7.65625 0 C 7.300781 0 7.125 -0.195312 7.125 -0.59375 L 7.125 -16.96875 C 7.125 -17.25 7.015625 -17.390625 6.796875 -17.390625 L 1.53125 -17.390625 C 1.070312 -17.390625 0.84375 -17.582031 0.84375 -17.96875 Z M 0.84375 -21.53125 "/></g></g></g><g fill="#1696de" fill-opacity="1"><g transform="translate(262.628459, 54.946045)"><g><path d="M 1.5625 -21.53125 C 1.5625 -21.988281 1.75 -22.21875 2.125 -22.21875 L 18.296875 -22.21875 C 18.648438 -22.21875 18.828125 -22.003906 18.828125 -21.578125 L 18.796875 -18.109375 C 18.796875 -17.566406 18.535156 -17.296875 18.015625 -17.296875 L 9.046875 -17.296875 C 8.585938 -17.296875 8.359375 -17.109375 8.359375 -16.734375 L 8.359375 -14.1875 C 8.359375 -13.988281 8.40625 -13.832031 8.5 -13.71875 C 8.601562 -13.613281 8.734375 -13.5625 8.890625 -13.5625 L 14.28125 -13.5625 C 14.695312 -13.5625 14.90625 -13.363281 14.90625 -12.96875 L 14.90625 -9.25 C 14.90625 -8.90625 14.726562 -8.734375 14.375 -8.734375 L 8.828125 -8.734375 C 8.691406 -8.734375 8.578125 -8.691406 8.484375 -8.609375 C 8.398438 -8.535156 8.359375 -8.441406 8.359375 -8.328125 L 8.359375 -5.328125 C 8.359375 -5.171875 8.378906 -5.0625 8.421875 -5 C 8.472656 -4.9375 8.570312 -4.90625 8.71875 -4.90625 L 18.4375 -4.90625 C 18.875 -4.90625 19.09375 -4.71875 19.09375 -4.34375 L 19.09375 -0.65625 C 19.09375 -0.457031 19.03125 -0.296875 18.90625 -0.171875 C 18.789062 -0.0546875 18.613281 0 18.375 0 L 2.359375 0 C 2.066406 0 1.859375 -0.0546875 1.734375 -0.171875 C 1.617188 -0.296875 1.5625 -0.488281 1.5625 -0.75 Z M 1.5625 -21.53125 "/></g></g></g><g fill="#1696de" fill-opacity="1"><g transform="translate(282.713909, 54.946045)"><g><path d="M 11.53125 -22.515625 C 13.1875 -22.515625 14.679688 -22.21875 16.015625 -21.625 C 17.347656 -21.039062 18.441406 -20.226562 19.296875 -19.1875 C 20.160156 -18.15625 20.722656 -16.96875 20.984375 -15.625 C 21.046875 -15.382812 21.078125 -15.195312 21.078125 -15.0625 C 21.078125 -14.882812 21.039062 -14.765625 20.96875 -14.703125 C 20.894531 -14.640625 20.769531 -14.597656 20.59375 -14.578125 L 15.359375 -14.25 C 15.160156 -14.25 15.03125 -14.28125 14.96875 -14.34375 C 14.90625 -14.414062 14.847656 -14.570312 14.796875 -14.8125 C 14.609375 -15.769531 14.273438 -16.523438 13.796875 -17.078125 C 13.316406 -17.628906 12.617188 -17.90625 11.703125 -17.90625 C 10.523438 -17.90625 9.613281 -17.382812 8.96875 -16.34375 C 8.332031 -15.3125 8.015625 -13.625 8.015625 -11.28125 C 8.015625 -8.863281 8.3125 -7.144531 8.90625 -6.125 C 9.5 -5.113281 10.421875 -4.609375 11.671875 -4.609375 C 12.734375 -4.609375 13.632812 -4.878906 14.375 -5.421875 C 15.125 -5.960938 15.75 -6.859375 16.25 -8.109375 C 16.3125 -8.285156 16.484375 -8.375 16.765625 -8.375 C 16.898438 -8.375 17.007812 -8.367188 17.09375 -8.359375 L 20.84375 -7.609375 C 21.132812 -7.503906 21.28125 -7.273438 21.28125 -6.921875 C 21.28125 -6.359375 20.9375 -5.492188 20.25 -4.328125 C 19.5625 -3.160156 18.484375 -2.097656 17.015625 -1.140625 C 15.546875 -0.179688 13.695312 0.296875 11.46875 0.296875 C 9.351562 0.296875 7.492188 -0.203125 5.890625 -1.203125 C 4.296875 -2.210938 3.0625 -3.597656 2.1875 -5.359375 C 1.320312 -7.128906 0.890625 -9.144531 0.890625 -11.40625 C 0.890625 -13.644531 1.320312 -15.597656 2.1875 -17.265625 C 3.0625 -18.941406 4.300781 -20.234375 5.90625 -21.140625 C 7.519531 -22.054688 9.394531 -22.515625 11.53125 -22.515625 Z M 11.53125 -22.515625 "/></g></g></g><g fill="#1696de" fill-opacity="1"><g transform="translate(304.774966, 54.946045)"><g><path d="M 8.828125 -8.890625 C 8.691406 -8.890625 8.578125 -8.84375 8.484375 -8.75 C 8.398438 -8.664062 8.359375 -8.5625 8.359375 -8.4375 L 8.359375 -0.875 C 8.359375 -0.550781 8.273438 -0.320312 8.109375 -0.1875 C 7.953125 -0.0625 7.703125 0 7.359375 0 L 2.359375 0 C 2.066406 0 1.859375 -0.0546875 1.734375 -0.171875 C 1.617188 -0.296875 1.5625 -0.488281 1.5625 -0.75 L 1.5625 -21.53125 C 1.5625 -21.75 1.609375 -21.914062 1.703125 -22.03125 C 1.804688 -22.15625 1.945312 -22.21875 2.125 -22.21875 L 7.8125 -22.21875 C 7.96875 -22.21875 8.097656 -22.160156 8.203125 -22.046875 C 8.304688 -21.941406 8.359375 -21.785156 8.359375 -21.578125 L 8.359375 -14.640625 C 8.359375 -14.242188 8.535156 -14.046875 8.890625 -14.046875 L 13.921875 -14.046875 C 14.273438 -14.046875 14.453125 -14.242188 14.453125 -14.640625 L 14.453125 -21.578125 C 14.453125 -21.785156 14.503906 -21.941406 14.609375 -22.046875 C 14.710938 -22.160156 14.84375 -22.21875 15 -22.21875 L 20.6875 -22.21875 C 20.863281 -22.21875 21 -22.15625 21.09375 -22.03125 C 21.195312 -21.914062 21.25 -21.75 21.25 -21.53125 L 21.25 -0.75 C 21.25 -0.488281 21.1875 -0.296875 21.0625 -0.171875 C 20.945312 -0.0546875 20.742188 0 20.453125 0 L 15.453125 0 C 15.109375 0 14.851562 -0.0625 14.6875 -0.1875 C 14.53125 -0.320312 14.453125 -0.550781 14.453125 -0.875 L 14.453125 -8.4375 C 14.453125 -8.5625 14.40625 -8.664062 14.3125 -8.75 C 14.226562 -8.84375 14.117188 -8.890625 13.984375 -8.890625 Z M 8.828125 -8.890625 "/></g></g></g><path stroke-linecap="butt" transform="matrix(0.748341, 0, 0, 0.748341, 92.125275, 31.098921)" fill="none" stroke-linejoin="miter" d="M 37.812457 12.630424 C 37.812457 14.488702 37.368767 16.101646 36.481387 17.464035 C 35.594007 18.831644 34.346455 19.88084 32.733512 20.616844 C 31.125788 21.347627 29.27273 21.713019 27.184777 21.713019 L 21.891817 21.713019 C 21.583844 21.713019 21.427248 21.859176 21.427248 22.146269 L 21.427248 30.879132 C 21.427248 31.291502 21.32285 31.583816 21.119275 31.756072 C 20.910479 31.917888 20.586847 32.001406 20.153596 32.001406 L 13.649624 32.001406 C 13.268572 32.001406 13.002358 31.923108 12.856201 31.771731 C 12.720485 31.615135 12.652626 31.369801 12.652626 31.035728 L 12.652626 4.205535 C 12.652626 3.610468 12.897961 3.318155 13.388629 3.318155 L 26.18778 3.318155 C 28.348811 3.318155 30.311487 3.673107 32.075807 4.383011 C 33.845347 5.087695 35.239055 6.136891 36.267372 7.52538 C 37.295689 8.919088 37.812457 10.62077 37.812457 12.630424 Z M 28.84992 12.520807 C 28.84992 11.612547 28.536727 10.881764 27.920781 10.328456 C 27.304835 9.775149 26.542732 9.498495 25.639692 9.498495 L 22.314628 9.498495 C 21.980555 9.498495 21.75088 9.566354 21.615163 9.696851 C 21.489886 9.822128 21.427248 10.025703 21.427248 10.312797 L 21.427248 14.681838 C 21.427248 14.989811 21.479446 15.209046 21.578624 15.339543 C 21.688242 15.46482 21.855278 15.527459 22.079733 15.527459 L 25.874587 15.527459 C 26.772407 15.527459 27.49275 15.240365 28.035618 14.660958 C 28.578486 14.081551 28.84992 13.366428 28.84992 12.520807 Z M 50.298415 20.512446 C 50.126159 20.512446 49.974782 20.575085 49.854725 20.695142 C 49.745107 20.804759 49.687689 20.940476 49.687689 21.097073 L 49.687689 30.879132 C 49.687689 31.291502 49.583291 31.583816 49.374496 31.756072 C 49.1657 31.917888 48.847288 32.001406 48.414037 32.001406 L 41.957043 32.001406 C 41.565552 32.001406 41.294118 31.923108 41.137522 31.771731 C 40.986145 31.615135 40.907847 31.369801 40.907847 31.035728 L 40.907847 4.205535 C 40.907847 3.918441 40.970486 3.704426 41.095763 3.55305 C 41.23148 3.396453 41.414176 3.318155 41.64385 3.318155 L 48.988224 3.318155 C 49.19702 3.318155 49.364056 3.391233 49.489333 3.53217 C 49.61983 3.673107 49.687689 3.871462 49.687689 4.127237 L 49.687689 13.094994 C 49.687689 13.611762 49.917363 13.867536 50.387153 13.867536 L 56.880686 13.867536 C 57.340036 13.867536 57.56971 13.611762 57.56971 13.094994 L 57.56971 4.127237 C 57.56971 3.871462 57.632349 3.673107 57.757626 3.53217 C 57.888123 3.391233 58.060379 3.318155 58.263955 3.318155 L 65.608329 3.318155 C 65.843223 3.318155 66.020699 3.396453 66.145976 3.55305 C 66.281693 3.704426 66.344332 3.918441 66.344332 4.205535 L 66.344332 31.035728 C 66.344332 31.369801 66.266034 31.615135 66.109437 31.771731 C 65.958061 31.923108 65.691847 32.001406 65.305575 32.001406 L 58.853801 32.001406 C 58.410111 32.001406 58.086479 31.917888 57.877683 31.756072 C 57.668888 31.583816 57.56971 31.291502 57.56971 30.879132 L 57.56971 21.097073 C 57.56971 20.940476 57.512292 20.804759 57.397454 20.695142 C 57.282617 20.575085 57.13646 20.512446 56.953764 20.512446 Z M 70.013909 32.001406 C 69.810334 32.001406 69.638077 31.928328 69.50758 31.792611 C 69.382303 31.646454 69.319665 31.448099 69.319665 31.187105 C 69.319665 31.004409 69.356204 30.795614 69.439722 30.565939 L 78.79375 4.205535 C 78.919028 3.871462 79.059964 3.641788 79.216561 3.51651 C 79.373157 3.380793 79.618492 3.318155 79.952564 3.318155 L 87.573592 3.318155 C 87.881565 3.318155 88.158219 3.412113 88.403553 3.610468 C 88.648888 3.798384 88.831583 4.048938 88.956861 4.356911 L 98.237811 30.685996 C 98.28479 30.894791 98.310889 31.051388 98.310889 31.150565 C 98.310889 31.38546 98.26391 31.583816 98.159512 31.756072 C 98.060335 31.917888 97.903738 32.001406 97.700163 32.001406 L 90.120894 32.001406 C 89.677204 32.001406 89.395331 31.782171 89.270053 31.338481 L 87.761508 26.896362 C 87.683209 26.718886 87.610131 26.598828 87.542273 26.53619 C 87.479634 26.468331 87.359577 26.431792 87.182101 26.431792 L 78.981666 26.431792 C 78.673693 26.431792 78.480557 26.572729 78.407479 26.854603 L 76.820635 31.421999 C 76.664039 31.808271 76.356066 32.001406 75.896716 32.001406 Z M 85.250744 19.859961 C 85.532618 19.859961 85.673555 19.734684 85.673555 19.47369 C 85.673555 19.426711 85.647455 19.296214 85.600476 19.087418 L 83.277629 12.479048 C 83.22543 12.348551 83.147132 12.280692 83.042734 12.280692 C 82.938337 12.280692 82.865258 12.348551 82.81306 12.479048 L 80.453673 19.050879 C 80.406694 19.150057 80.380595 19.280554 80.380595 19.43715 C 80.380595 19.719024 80.531971 19.859961 80.839944 19.859961 Z M 126.336435 30.764294 C 126.388634 30.863472 126.414734 31.004409 126.414734 31.187105 C 126.414734 31.421999 126.341655 31.615135 126.195498 31.771731 C 126.059782 31.923108 125.877086 32.001406 125.647411 32.001406 L 118.146441 32.001406 C 117.603573 32.001406 117.253841 31.729972 117.097244 31.187105 L 113.464206 21.21191 C 113.391128 21.003115 113.260631 20.851738 113.077935 20.747341 C 112.900459 20.648163 112.629025 20.595964 112.263634 20.595964 L 110.488874 20.595964 C 110.332277 20.595964 110.21744 20.648163 110.144361 20.747341 C 110.066063 20.851738 110.029524 20.940476 110.029524 21.023994 L 110.029524 30.879132 C 110.029524 31.291502 109.925126 31.583816 109.716331 31.756072 C 109.507536 31.917888 109.189123 32.001406 108.755873 32.001406 L 102.2519 32.001406 C 101.865629 32.001406 101.604635 31.923108 101.458478 31.771731 C 101.322761 31.615135 101.249683 31.369801 101.249683 31.035728 L 101.249683 4.205535 C 101.249683 3.610468 101.495017 3.318155 101.985686 3.318155 L 114.899674 3.318155 C 118.637109 3.318155 121.534144 4.028059 123.590777 5.458306 C 125.657851 6.888554 126.686167 8.903429 126.686167 11.50815 C 126.686167 13.288129 126.216378 14.874974 125.271579 16.263462 C 124.332001 17.657171 123.120988 18.633289 121.628102 19.202256 C 121.471505 19.285774 121.393207 19.411051 121.393207 19.588527 C 121.393207 19.661605 121.419306 19.781663 121.466285 19.938259 Z M 114.549942 14.833214 C 115.53128 14.833214 116.288163 14.58266 116.815371 14.086771 C 117.342579 13.580443 117.608793 12.901858 117.608793 12.045798 C 117.608793 11.095779 117.29038 10.359776 116.653554 9.827348 C 116.027168 9.30014 115.244186 9.033926 114.315047 9.033926 L 110.916904 9.033926 C 110.582832 9.033926 110.347937 9.096564 110.21744 9.216621 C 110.092163 9.326239 110.029524 9.524595 110.029524 9.811688 L 110.029524 14.018913 C 110.029524 14.300787 110.071283 14.509582 110.160021 14.640079 C 110.248759 14.770576 110.421015 14.833214 110.682009 14.833214 Z M 130.820314 32.001406 C 130.512341 32.001406 130.267006 31.907448 130.084311 31.714313 C 129.906835 31.521177 129.818097 31.254963 129.818097 30.915671 L 129.818097 4.205535 C 129.818097 3.897562 129.880735 3.673107 130.006012 3.53217 C 130.136509 3.391233 130.345305 3.318155 130.627178 3.318155 L 141.453213 3.318155 C 141.787286 3.318155 142.0274 3.359914 142.163117 3.448652 C 142.309274 3.53739 142.434551 3.725306 142.538949 4.012399 L 146.563478 16.305221 C 146.636556 16.514016 146.725294 16.613194 146.824472 16.613194 C 146.90799 16.613194 146.986288 16.514016 147.064587 16.305221 L 150.655865 4.440429 C 150.859441 3.688766 151.203953 3.318155 151.694622 3.318155 L 162.870389 3.318155 C 163.334959 3.318155 163.569853 3.589589 163.569853 4.127237 L 163.569853 30.879132 C 163.569853 31.291502 163.470676 31.583816 163.27754 31.756072 C 163.084404 31.917888 162.765992 32.001406 162.332741 32.001406 L 155.792229 32.001406 C 155.411178 32.001406 155.144964 31.923108 154.998807 31.771731 C 154.86309 31.615135 154.790012 31.369801 154.790012 31.035728 L 154.790012 13.669181 C 154.790012 13.470825 154.743033 13.366428 154.643855 13.366428 C 154.508138 13.366428 154.403741 13.486485 154.330662 13.71616 L 148.761048 31.301942 C 148.578352 31.766512 148.270379 32.001406 147.837129 32.001406 L 143.776061 32.001406 C 143.311491 32.001406 142.998299 31.766512 142.841702 31.301942 L 137.282528 14.018913 C 137.20423 13.763139 137.110272 13.632642 137.011094 13.632642 C 136.880597 13.632642 136.812738 13.773578 136.812738 14.055452 L 136.812738 31.150565 C 136.812738 31.484638 136.76054 31.709093 136.661362 31.82915 C 136.562184 31.943988 136.327289 32.001406 135.961898 32.001406 Z M 167.23421 32.001406 C 167.030635 32.001406 166.858379 31.928328 166.727882 31.792611 C 166.602605 31.646454 166.539966 31.448099 166.539966 31.187105 C 166.539966 31.004409 166.576505 30.795614 166.660023 30.565939 L 176.014052 4.205535 C 176.139329 3.871462 176.280266 3.641788 176.436862 3.51651 C 176.593459 3.380793 176.838793 3.318155 177.172866 3.318155 L 184.793893 3.318155 C 185.101866 3.318155 185.37852 3.412113 185.623855 3.610468 C 185.869189 3.798384 186.051885 4.048938 186.177162 4.356911 L 195.458112 30.685996 C 195.505091 30.894791 195.531191 31.051388 195.531191 31.150565 C 195.531191 31.38546 195.484212 31.583816 195.379814 31.756072 C 195.280636 31.917888 195.12926 32.001406 194.920464 32.001406 L 187.341196 32.001406 C 186.897506 32.001406 186.615632 31.782171 186.490355 31.338481 L 184.981809 26.896362 C 184.903511 26.718886 184.830433 26.598828 184.762574 26.53619 C 184.699936 26.468331 184.579878 26.431792 184.402402 26.431792 L 176.201968 26.431792 C 175.893995 26.431792 175.700859 26.572729 175.627781 26.854603 L 174.040937 31.421999 C 173.88434 31.808271 173.576367 32.001406 173.117017 32.001406 Z M 182.471046 19.859961 C 182.75292 19.859961 182.893856 19.734684 182.893856 19.47369 C 182.893856 19.426711 182.867757 19.296214 182.820778 19.087418 L 180.497931 12.479048 C 180.445732 12.348551 180.367433 12.280692 180.263036 12.280692 C 180.158638 12.280692 180.08556 12.348551 180.033361 12.479048 L 177.673974 19.050879 C 177.626995 19.150057 177.600896 19.280554 177.600896 19.43715 C 177.600896 19.719024 177.752273 19.859961 178.060246 19.859961 Z M 182.471046 19.859961 " stroke="#80c7a3" stroke-width="2.392502" stroke-opacity="1" stroke-miterlimit="4"/></svg>