<svg xmlns="http://www.w3.org/2000/svg" xmlns:xlink="http://www.w3.org/1999/xlink" width="500" zoomAndPan="magnify" viewBox="0 0 375 374.999991" height="500" preserveAspectRatio="xMidYMid meet" version="1.0"><path fill="#80c7a3" d="M 89.261719 204.894531 L 76.335938 204.894531 L 76.335938 190.34375 L 61.78125 190.34375 L 61.78125 177.414062 L 76.335938 177.414062 L 76.335938 162.882812 L 89.261719 162.882812 L 89.261719 177.414062 L 103.792969 177.414062 L 103.792969 190.34375 L 89.261719 190.34375 Z M 89.261719 204.894531 " fill-opacity="1" fill-rule="nonzero"/><path fill="#80c7a3" d="M 276.777344 237.640625 C 306.421875 237.640625 330.539062 213.523438 330.539062 183.878906 C 330.539062 164.398438 320.105469 147.367188 304.570312 137.941406 C 307.492188 134.105469 310.324219 130.316406 313.042969 126.597656 C 332.007812 138.652344 344.667969 159.785156 344.667969 183.878906 C 344.667969 221.300781 314.222656 251.746094 276.800781 251.746094 L 199.347656 251.746094 C 204.363281 247.15625 209.398438 242.476562 214.457031 237.640625 Z M 276.777344 237.640625 " fill-opacity="1" fill-rule="nonzero"/><path fill="#1696de" d="M 21.59375 344.78125 C 42.8125 366 132.367188 310.859375 221.589844 221.613281 C 310.859375 132.367188 366 42.8125 344.78125 21.59375 C 332.1875 9 295.566406 23.289062 249.207031 55.628906 C 271.628906 42.96875 288.390625 38.667969 295.1875 45.464844 C 304.28125 54.558594 293.472656 81.503906 269.355469 116.007812 L 91 116.007812 C 53.578125 116.007812 23.132812 146.457031 23.132812 183.878906 C 23.132812 221.300781 53.578125 251.746094 91 251.746094 L 139.546875 251.746094 C 94.097656 287.855469 56.542969 306.242188 45.464844 295.167969 C 38.667969 288.367188 42.96875 271.605469 55.628906 249.183594 C 23.289062 295.546875 9 332.1875 21.59375 344.78125 Z M 186.242188 139.523438 L 186.242188 210.824219 C 176.253906 220.386719 166.335938 229.347656 156.640625 237.640625 L 91 237.640625 C 61.355469 237.640625 37.238281 213.523438 37.238281 183.878906 C 37.238281 154.234375 61.355469 130.117188 91 130.117188 L 259.058594 130.117188 C 256.71875 133.214844 254.289062 136.335938 251.769531 139.523438 Z M 186.242188 139.523438 " fill-opacity="1" fill-rule="nonzero"/><path fill="#80c7a3" d="M 276.777344 228.253906 L 224.132812 228.253906 C 226.136719 226.292969 228.144531 224.308594 230.148438 222.304688 C 256.339844 196.113281 279.542969 169.925781 298.800781 145.429688 C 312.128906 153.097656 321.15625 167.453125 321.15625 183.898438 C 321.132812 208.351562 301.230469 228.253906 276.777344 228.253906 Z M 276.777344 228.253906 " fill-opacity="1" fill-rule="nonzero"/></svg>