<svg width="36" height="36" viewBox="0 0 36 36" fill="none" xmlns="http://www.w3.org/2000/svg">
<g clip-path="url(#clip0_2065_3193)">
<path d="M36 18C36 27.9411 27.9411 36 18 36C8.05887 36 0 27.9411 0 18C0 8.05887 8.05887 0 18 0C27.9411 0 36 8.05887 36 18ZM3.6 18C3.6 25.9529 10.0471 32.4 18 32.4C25.9529 32.4 32.4 25.9529 32.4 18C32.4 10.0471 25.9529 3.6 18 3.6C10.0471 3.6 3.6 10.0471 3.6 18Z" fill="#EAEAEB"/>
<path d="M6.54487 29.4551C5.84193 30.1581 4.69416 30.1632 4.0649 29.3936C1.75463 26.5681 0.348393 23.094 0.0566954 19.4275C-0.282785 15.1604 0.909546 10.912 3.41972 7.44465C5.9299 3.9773 9.59359 1.51802 13.7533 0.508118C17.3276 -0.359636 21.0671 -0.108488 24.4727 1.204C25.4003 1.56149 25.7538 2.65347 25.3055 3.54076C24.8572 4.42805 23.7769 4.77214 22.8406 4.43796C20.2078 3.4982 17.3445 3.34084 14.6027 4.00649C11.2749 4.81441 8.34392 6.78184 6.33578 9.55572C4.32764 12.3296 3.37377 15.7283 3.64536 19.142C3.86912 21.9546 4.91267 24.6256 6.62755 26.8334C7.23738 27.6185 7.24781 28.7522 6.54487 29.4551Z" fill="#EFEFF0"/>
</g>
<defs>
<clipPath id="clip0_2065_3193">
<rect width="36" height="36" fill="white"/>
</clipPath>
</defs>
</svg>
