<svg width="668" height="183" viewBox="0 0 668 183" fill="none" xmlns="http://www.w3.org/2000/svg">
<path d="M40.9015 99.663H34.3134V92.2763H26.8922V85.712H34.3134V78.333H40.9015V85.712H48.3072V92.2763H40.9015V99.663Z" fill="#80C7A3"/>
<path d="M136.451 116.289C151.556 116.289 163.845 104.045 163.845 88.9944C163.845 79.1019 158.53 70.4546 150.615 65.6736C152.104 63.7212 153.546 61.7996 154.935 59.9087C164.593 66.0348 171.05 76.7575 171.05 88.9944C171.05 107.995 155.537 123.453 136.467 123.453H96.9924C99.5536 121.124 102.115 118.749 104.699 116.289H136.451Z" fill="#80C7A3"/>
<path d="M6.4183 170.686C17.2261 181.463 62.8641 153.468 108.332 108.156C153.816 62.8369 181.92 17.3713 171.104 6.59487C164.686 0.199712 146.025 7.45576 122.403 23.8741C133.828 17.4482 142.368 15.2652 145.832 18.7165C150.468 23.3361 144.96 37.018 132.671 54.5355H41.7885C22.7187 54.5355 7.19745 69.9931 7.19745 88.9941C7.19745 107.995 22.7187 123.453 41.7885 123.453H66.5207C43.3623 141.785 24.223 151.124 18.5838 145.497C15.1201 142.046 17.3109 133.537 23.7601 122.154C7.2823 145.69 -3.05176e-05 164.299 6.4183 170.686ZM90.3194 66.4726V102.676C85.228 107.534 80.1751 112.077 75.2302 116.289H41.7885C26.6762 116.289 14.3872 104.044 14.3872 88.9941C14.3872 73.9439 26.6762 61.6993 41.7885 61.6993H127.425C126.23 63.2674 124.995 64.8585 123.707 66.4726H90.3194Z" fill="#1696DE"/>
<path d="M136.451 111.523H109.628C110.647 110.532 111.673 109.525 112.691 108.503C126.037 95.2051 137.863 81.9074 147.676 69.4707C154.464 73.3678 159.062 80.6545 159.062 89.0021C159.054 101.423 148.91 111.523 136.451 111.523Z" fill="#80C7A3"/>
<path d="M478.707 65.7517C478.707 65.3674 478.83 65.0446 479.077 64.7986C479.339 64.5373 479.709 64.3989 480.188 64.3989H515.519C515.99 64.3989 516.353 64.5373 516.599 64.7986C516.862 65.0446 517.001 65.3674 517.001 65.7517V72.7618C517.001 73.5228 516.569 73.8994 515.705 73.8994H505.244C504.766 73.8994 504.534 74.0993 504.534 74.4836V106.828C504.534 107.259 504.426 107.589 504.226 107.812C504.04 108.02 503.77 108.12 503.423 108.12H492.16C491.458 108.12 491.111 107.735 491.111 106.951V74.7296C491.111 74.1761 490.895 73.8994 490.463 73.8994H480.064C479.154 73.8994 478.707 73.5228 478.707 72.7618V65.7517Z" fill="#1696DE"/>
<path d="M521.743 65.7517C521.743 64.8524 522.113 64.3989 522.854 64.3989H554.791C555.485 64.3989 555.84 64.8217 555.84 65.6595L555.779 72.4851C555.779 73.5535 555.262 74.0839 554.236 74.0839H536.524C535.613 74.0839 535.166 74.4529 535.166 75.1908V80.2024C535.166 80.5944 535.258 80.9018 535.444 81.1247C535.644 81.3323 535.906 81.4322 536.215 81.4322H546.861C547.679 81.4322 548.095 81.8242 548.095 82.6005V89.9181C548.095 90.5945 547.74 90.9327 547.046 90.9327H536.092C535.822 90.9327 535.598 91.0172 535.413 91.1787C535.243 91.3247 535.166 91.5092 535.166 91.7321V97.6353C535.166 97.9428 535.204 98.158 535.289 98.281C535.39 98.404 535.582 98.4655 535.876 98.4655H555.069C555.933 98.4655 556.365 98.8344 556.365 99.5723V106.828C556.365 107.22 556.241 107.536 555.995 107.781C555.763 108.012 555.416 108.12 554.945 108.12H523.317C522.738 108.12 522.329 108.012 522.082 107.781C521.851 107.536 521.743 107.159 521.743 106.644V65.7517Z" fill="#1696DE"/>
<path d="M581.096 63.8145C584.367 63.8145 587.314 64.3986 589.952 65.567C592.583 66.7199 594.743 68.3187 596.432 70.3633C598.137 72.3926 599.248 74.7293 599.765 77.3734C599.888 77.85 599.95 78.2189 599.95 78.4803C599.95 78.8339 599.873 79.0645 599.734 79.1874C599.587 79.3104 599.341 79.395 598.993 79.4334L588.656 80.0791C588.263 80.0791 588.008 80.0176 587.885 79.8946C587.761 79.7562 587.646 79.4488 587.545 78.9722C587.175 77.089 586.512 75.6055 585.57 74.5141C584.622 73.4303 583.241 72.8845 581.436 72.8845C579.106 72.8845 577.308 73.9145 576.036 75.9591C574.778 77.9883 574.153 81.3089 574.153 85.9208C574.153 90.6787 574.74 94.0608 575.912 96.067C577.085 98.0578 578.905 99.0493 581.374 99.0493C583.472 99.0493 585.246 98.519 586.712 97.4505C588.193 96.3898 589.428 94.6219 590.415 92.1622C590.538 91.8163 590.878 91.6396 591.433 91.6396C591.696 91.6396 591.912 91.6549 592.081 91.6703L599.487 93.1461C600.058 93.3536 600.351 93.8071 600.351 94.4989C600.351 95.6058 599.672 97.3122 598.315 99.6028C596.957 101.901 594.828 103.992 591.927 105.875C589.026 107.766 585.37 108.704 580.973 108.704C576.792 108.704 573.12 107.72 569.957 105.752C566.809 103.769 564.371 101.04 562.643 97.5735C560.931 94.0915 560.082 90.1253 560.082 85.6748C560.082 81.2705 560.931 77.4272 562.643 74.1451C564.371 70.8476 566.817 68.3034 569.987 66.5201C573.174 64.7215 576.876 63.8145 581.096 63.8145Z" fill="#1696DE"/>
<path d="M619.325 90.6252C619.055 90.6252 618.832 90.7175 618.647 90.9019C618.477 91.0711 618.4 91.2709 618.4 91.5169V106.398C618.4 107.036 618.23 107.489 617.906 107.751C617.597 107.997 617.104 108.12 616.425 108.12H606.551C605.972 108.12 605.563 108.012 605.316 107.781C605.085 107.536 604.977 107.159 604.977 106.644V65.7517C604.977 65.3213 605.069 64.9985 605.255 64.7679C605.455 64.5219 605.733 64.3989 606.088 64.3989H617.32C617.628 64.3989 617.883 64.5142 618.091 64.7371C618.292 64.9447 618.4 65.2521 618.4 65.6595V79.3107C618.4 80.0947 618.747 80.4791 619.449 80.4791H629.385C630.079 80.4791 630.434 80.0947 630.434 79.3107V65.6595C630.434 65.2521 630.534 64.9447 630.743 64.7371C630.943 64.5142 631.206 64.3989 631.514 64.3989H642.746C643.093 64.3989 643.363 64.5219 643.549 64.7679C643.749 64.9985 643.857 65.3213 643.857 65.7517V106.644C643.857 107.159 643.734 107.536 643.487 107.781C643.255 108.012 642.854 108.12 642.283 108.12H632.409C631.73 108.12 631.221 107.997 630.897 107.751C630.588 107.489 630.434 107.036 630.434 106.398V91.5169C630.434 91.2709 630.342 91.0711 630.156 90.9019C629.987 90.7175 629.771 90.6252 629.508 90.6252H619.325Z" fill="#1696DE"/>
<path d="M237.818 79.7933C237.818 82.5297 237.162 84.9048 235.85 86.911C234.539 88.9248 232.695 90.4698 230.312 91.5536C227.936 92.6297 225.197 93.1678 222.111 93.1678H214.289C213.834 93.1678 213.602 93.383 213.602 93.8058V106.665C213.602 107.272 213.448 107.703 213.147 107.957C212.839 108.195 212.36 108.318 211.72 108.318H202.108C201.545 108.318 201.151 108.203 200.935 107.98C200.735 107.749 200.635 107.388 200.635 106.896V67.3873C200.635 66.511 200.997 66.0806 201.722 66.0806H220.638C223.832 66.0806 226.732 66.6032 229.34 67.6486C231.955 68.6863 234.014 70.2313 235.534 72.2759C237.054 74.3282 237.818 76.834 237.818 79.7933ZM224.572 79.6319C224.572 78.2944 224.109 77.2183 223.199 76.4035C222.289 75.5888 221.162 75.1814 219.828 75.1814H214.914C214.42 75.1814 214.081 75.2813 213.88 75.4735C213.695 75.6579 213.602 75.9577 213.602 76.3805V82.8141C213.602 83.2676 213.679 83.5904 213.826 83.7826C213.988 83.967 214.235 84.0593 214.567 84.0593H220.175C221.502 84.0593 222.566 83.6365 223.369 82.7833C224.171 81.9301 224.572 80.8771 224.572 79.6319ZM256.27 91.3999C256.016 91.3999 255.792 91.4921 255.615 91.6689C255.453 91.8303 255.368 92.0302 255.368 92.2608V106.665C255.368 107.272 255.213 107.703 254.905 107.957C254.596 108.195 254.126 108.318 253.485 108.318H243.943C243.364 108.318 242.963 108.203 242.732 107.98C242.508 107.749 242.392 107.388 242.392 106.896V67.3873C242.392 66.9645 242.485 66.6494 242.67 66.4265C242.871 66.1959 243.141 66.0806 243.48 66.0806H254.334C254.643 66.0806 254.889 66.1882 255.075 66.3957C255.267 66.6032 255.368 66.8953 255.368 67.272V80.4774C255.368 81.2383 255.707 81.615 256.401 81.615H265.998C266.677 81.615 267.016 81.2383 267.016 80.4774V67.272C267.016 66.8953 267.109 66.6032 267.294 66.3957C267.487 66.1882 267.742 66.0806 268.042 66.0806H278.897C279.244 66.0806 279.506 66.1959 279.691 66.4265C279.892 66.6494 279.984 66.9645 279.984 67.3873V106.896C279.984 107.388 279.869 107.749 279.637 107.98C279.413 108.203 279.02 108.318 278.449 108.318H268.914C268.258 108.318 267.78 108.195 267.472 107.957C267.163 107.703 267.016 107.272 267.016 106.665V92.2608C267.016 92.0302 266.932 91.8303 266.762 91.6689C266.592 91.4921 266.376 91.3999 266.106 91.3999H256.27ZM285.407 108.318C285.107 108.318 284.852 108.21 284.659 108.01C284.474 107.795 284.381 107.503 284.381 107.119C284.381 106.85 284.435 106.542 284.559 106.204L298.383 67.3873C298.568 66.8953 298.776 66.5571 299.008 66.3727C299.239 66.1728 299.602 66.0806 300.096 66.0806H311.358C311.814 66.0806 312.222 66.2189 312.585 66.511C312.948 66.7877 313.218 67.1567 313.403 67.6102L327.119 106.381C327.188 106.688 327.227 106.919 327.227 107.065C327.227 107.411 327.157 107.703 327.003 107.957C326.857 108.195 326.625 108.318 326.324 108.318H315.123C314.467 108.318 314.051 107.995 313.866 107.342L311.636 100.8C311.52 100.539 311.412 100.362 311.312 100.27C311.22 100.17 311.042 100.116 310.78 100.116H298.661C298.206 100.116 297.92 100.324 297.812 100.739L295.467 107.465C295.235 108.033 294.78 108.318 294.101 108.318H285.407ZM307.926 90.4391C308.342 90.4391 308.55 90.2546 308.55 89.8703C308.55 89.8011 308.512 89.6089 308.442 89.3015L305.01 79.5704C304.932 79.3782 304.817 79.2783 304.662 79.2783C304.508 79.2783 304.4 79.3782 304.323 79.5704L300.836 89.2477C300.767 89.3937 300.728 89.5859 300.728 89.8165C300.728 90.2315 300.952 90.4391 301.407 90.4391H307.926ZM368.645 106.496C368.722 106.642 368.761 106.85 368.761 107.119C368.761 107.465 368.653 107.749 368.437 107.98C368.236 108.203 367.966 108.318 367.627 108.318H356.541C355.739 108.318 355.222 107.918 354.991 107.119L349.622 92.4299C349.514 92.1224 349.321 91.8995 349.051 91.7458C348.788 91.5997 348.387 91.5229 347.847 91.5229H345.224C344.993 91.5229 344.823 91.5997 344.715 91.7458C344.6 91.8995 344.546 92.0302 344.546 92.1532V106.665C344.546 107.272 344.391 107.703 344.083 107.957C343.774 108.195 343.304 108.318 342.663 108.318H333.051C332.48 108.318 332.095 108.203 331.879 107.98C331.678 107.749 331.57 107.388 331.57 106.896V67.3873C331.57 66.511 331.933 66.0806 332.658 66.0806H351.743C357.267 66.0806 361.548 67.1259 364.587 69.232C367.642 71.3381 369.162 74.3051 369.162 78.1407C369.162 80.7618 368.468 83.0985 367.071 85.1431C365.683 87.1954 363.893 88.6327 361.687 89.4706C361.455 89.5936 361.34 89.778 361.34 90.0394C361.34 90.147 361.378 90.3238 361.448 90.5544L368.645 106.496ZM351.226 83.037C352.676 83.037 353.795 82.668 354.574 81.9378C355.353 81.1922 355.747 80.193 355.747 78.9324C355.747 77.5334 355.276 76.4496 354.335 75.6656C353.409 74.8893 352.252 74.4973 350.879 74.4973H345.857C345.363 74.4973 345.016 74.5895 344.823 74.7663C344.638 74.9277 344.546 75.2198 344.546 75.6426V81.8379C344.546 82.253 344.607 82.5604 344.738 82.7526C344.87 82.9447 345.124 83.037 345.51 83.037H351.226ZM375.272 108.318C374.817 108.318 374.454 108.179 374.184 107.895C373.922 107.611 373.791 107.219 373.791 106.719V67.3873C373.791 66.9338 373.883 66.6032 374.068 66.3957C374.261 66.1882 374.57 66.0806 374.986 66.0806H390.986C391.48 66.0806 391.834 66.1421 392.035 66.2727C392.251 66.4034 392.436 66.6801 392.59 67.1029L398.538 85.2046C398.646 85.512 398.777 85.6581 398.924 85.6581C399.047 85.6581 399.163 85.512 399.279 85.2046L404.586 67.7332C404.887 66.6263 405.396 66.0806 406.121 66.0806H422.638C423.324 66.0806 423.672 66.4803 423.672 67.272V106.665C423.672 107.272 423.525 107.703 423.24 107.957C422.954 108.195 422.484 108.318 421.843 108.318H412.177C411.614 108.318 411.221 108.203 411.005 107.98C410.804 107.749 410.696 107.388 410.696 106.896V81.3229C410.696 81.0308 410.627 80.8771 410.48 80.8771C410.279 80.8771 410.125 81.0539 410.017 81.3921L401.786 107.288C401.516 107.972 401.061 108.318 400.421 108.318H394.419C393.732 108.318 393.269 107.972 393.038 107.288L384.822 81.8379C384.706 81.4612 384.568 81.2691 384.421 81.2691C384.228 81.2691 384.128 81.4766 384.128 81.8917V107.065C384.128 107.557 384.051 107.887 383.904 108.064C383.758 108.233 383.41 108.318 382.87 108.318H375.272ZM429.087 108.318C428.786 108.318 428.532 108.21 428.339 108.01C428.154 107.795 428.061 107.503 428.061 107.119C428.061 106.85 428.115 106.542 428.238 106.204L442.063 67.3873C442.248 66.8953 442.456 66.5571 442.687 66.3727C442.919 66.1728 443.281 66.0806 443.775 66.0806H455.038C455.493 66.0806 455.902 66.2189 456.265 66.511C456.627 66.7877 456.897 67.1567 457.082 67.6102L470.798 106.381C470.868 106.688 470.906 106.919 470.906 107.065C470.906 107.411 470.837 107.703 470.683 107.957C470.536 108.195 470.312 108.318 470.004 108.318H458.803C458.147 108.318 457.73 107.995 457.545 107.342L455.316 100.8C455.2 100.539 455.092 100.362 454.992 100.27C454.899 100.17 454.722 100.116 454.46 100.116H442.34C441.885 100.116 441.6 100.324 441.492 100.739L439.147 107.465C438.915 108.033 438.46 108.318 437.781 108.318H429.087ZM451.605 90.4391C452.022 90.4391 452.23 90.2546 452.23 89.8703C452.23 89.8011 452.191 89.6089 452.122 89.3015L448.689 79.5704C448.612 79.3782 448.496 79.2783 448.342 79.2783C448.188 79.2783 448.08 79.3782 448.003 79.5704L444.516 89.2477C444.446 89.3937 444.408 89.5859 444.408 89.8165C444.408 90.2315 444.631 90.4391 445.087 90.4391H451.605Z" stroke="#80C7A3" stroke-width="2.38721"/>
</svg>
